# xmcd
#
# Track frame offsets: 
#        150
#        20187
#        33935
#        41918
#        58618
#        79655
#        85957
#        101296
#        118786
#        139036
#        162182
#        176022
#        193982
#
# Disc length: 3232 seconds
#
# Revision: 0
# Processed by: cddbd v1.5.2PL0 Copyright (c) Steve Scherf et al.
# Submitted via: ExactAudioCopy v0.99pb5
#
DISCID=af0c9e0d
DTITLE=Jesse Sprinkle - Streamstory
DYEAR=2011
DGENRE=Indie
TTITLE0=Color of the First Light
TTITLE1=Beyond the Earth
TTITLE2=Dream Valley Blvd.
TTITLE3=In Loving Memory
TTITLE4=Old Home
TTITLE5=Roads
TTITLE6=Everlasting Joy
TTITLE7=Somehow
TTITLE8=Your Touch is Gold
TTITLE9=Love
TTITLE10=Clockwork
TTITLE11=The Stories the Stones are Telling You
TTITLE12=Streamstory
EXTD=
EXTT0=
EXTT1=
EXTT2=
EXTT3=
EXTT4=
EXTT5=
EXTT6=
EXTT7=
EXTT8=
EXTT9=
EXTT10=
EXTT11=
EXTT12=
PLAYORDER=
